<?xml version="1.0" encoding="utf-8" standalone="no"?>
<!DOCTYPE svg PUBLIC "-//W3C//DTD SVG 1.1//EN" "http://www.w3.org/Graphics/SVG/1.1/DTD/svg11.dtd">
<svg version="1.1" width="612pt" height="792pt" viewBox="0 0 612 792" overflow="visible" xmlns="http://www.w3.org/2000/svg">
  <path d="M372.8231,306.2581 L387.7247,270.2738 L387.7247,306.2581 z" stroke="#000000" stroke-width="0.24" fill="none" />
  <path d="M385.0175,267.5666 L349.0332,282.4682 L349.0332,267.5666 z" stroke="#000000" stroke-width="0.24" fill="none" />
  <path d="M349.0332,283.9296 L387.1737,268.1416 L371.3857,306.2821 L349.0572,306.2821 z" stroke="#000000" stroke-width="0.24" fill="none" />
  <path d="M376.1532,356.7847 L349.5843,367.7812 L360.5808,341.2122 L387.1258,330.2157 z" stroke="#000000" stroke-width="0.24" fill="none" />
  <path d="M359.0954,341.3799 L349.0572,365.649 L349.0572,341.3799 z" stroke="#000000" stroke-width="0.24" fill="none" />
  <path d="M349.0332,340.0383 L349.0332,330.599 L358.4725,340.0383 z" stroke="#000000" stroke-width="0.24" fill="none" />
  <path d="M376.0095,358.318 L376.0095,368.3802 L351.7404,368.3802 z" stroke="#000000" stroke-width="0.24" fill="none" />
  <path d="M377.3511,368.3562 L377.3511,358.9169 L386.7904,368.3562 z" stroke="#000000" stroke-width="0.24" fill="none" />
  <path d="M377.4709,357.144 L387.7247,332.3719 L387.7247,367.4219 z" stroke="#000000" stroke-width="0.24" fill="none" />
  <path d="M360.2454,339.9185 L349.9915,329.6647 L385.0175,329.6647 z" stroke="#000000" stroke-width="0.24" fill="none" />
  <path d="M369.0618,430.4543 L369.0618,423.842 L385.0175,430.4543 z" stroke="#000000" stroke-width="0.24" fill="none" />
  <path d="M367.7202,391.7628 L367.7202,398.3751 L351.7644,391.7628 z" stroke="#000000" stroke-width="0.24" fill="none" />
  <path d="M369.0618,410.4258 L369.0618,399.8125 L387.1737,392.3138 L379.675,410.4258 z" stroke="#000000" stroke-width="0.24" fill="none" />
  <path d="M367.7202,399.8365 L367.7202,409.4914 L351.2373,393.0086 z" stroke="#000000" stroke-width="0.24" fill="none" />
  <path d="M366.7618,410.4258 L357.1069,410.4258 L350.279,393.9429 z" stroke="#000000" stroke-width="0.24" fill="none" />
  <path d="M367.7202,411.7914 L367.7202,422.4045 L349.6082,429.9033 L357.1069,411.7914 z" stroke="#000000" stroke-width="0.24" fill="none" />
  <path d="M369.0618,422.3806 L369.0618,412.7257 L385.5446,429.2085 z" stroke="#000000" stroke-width="0.24" fill="none" />
  <path d="M370.0201,411.7914 L379.675,411.7914 L386.5029,428.2742 z" stroke="#000000" stroke-width="0.24" fill="none" />
  <path d="M387.7247,394.47 L387.7247,410.4258 L381.1125,410.4258 z" stroke="#000000" stroke-width="0.24" fill="none" />
  <path d="M369.0618,398.3751 L369.0618,391.7628 L385.0175,391.7628 z" stroke="#000000" stroke-width="0.24" fill="none" />
  <path d="M355.6455,410.4258 L349.0332,410.4258 L349.0332,394.47 z" stroke="#000000" stroke-width="0.24" fill="none" />
  <path d="M355.6455,411.7914 L349.0332,427.7471 L349.0332,411.7914 z" stroke="#000000" stroke-width="0.24" fill="none" />
  <path d="M367.7202,423.842 L367.7202,430.4543 L351.7644,430.4543 z" stroke="#000000" stroke-width="0.24" fill="none" />
  <path d="M381.1125,411.7914 L387.7247,411.7914 L387.7247,427.7471 z" stroke="#000000" stroke-width="0.24" fill="none" />
  <path d="M374.9314,492.5524 L374.9314,488.3598 L385.0415,492.5524 z" stroke="#000000" stroke-width="0.24" fill="none" />
  <path d="M363.1922,492.5524 L363.1922,488.9827 L366.7618,492.5524 z" stroke="#000000" stroke-width="0.24" fill="none" />
  <path d="M361.8505,453.8609 L361.8505,458.0535 L351.7404,453.8609 z" stroke="#000000" stroke-width="0.24" fill="none" />
  <path d="M373.5658,453.8609 L373.5658,457.4306 L369.9961,453.8609 z" stroke="#000000" stroke-width="0.24" fill="none" />
  <path d="M371.769,472.5238 L382.3822,468.1157 L386.7904,472.5238 z" stroke="#000000" stroke-width="0.24" fill="none" />
  <path d="M386.7904,473.8894 L382.3822,478.2737 L371.769,473.8894 z" stroke="#000000" stroke-width="0.24" fill="none" />
  <path d="M382.0228,466.8219 L369.6367,471.9489 L374.7637,459.5388 L387.1737,454.3879 z" stroke="#000000" stroke-width="0.24" fill="none" />
  <path d="M369.0618,469.8167 L369.0618,454.7952 L373.446,459.2034 z" stroke="#000000" stroke-width="0.24" fill="none" />
  <path d="M367.7202,469.8167 L363.312,459.2034 L367.7202,454.7952 z" stroke="#000000" stroke-width="0.24" fill="none" />
  <path d="M361.9943,459.5628 L366.4504,470.3437 L351.2134,455.1067 z" stroke="#000000" stroke-width="0.24" fill="none" />
  <path d="M365.5161,471.278 L354.7351,466.8219 L350.279,456.041 z" stroke="#000000" stroke-width="0.24" fill="none" />
  <path d="M365.0129,472.5238 L349.9915,472.5238 L354.3997,468.1157 z" stroke="#000000" stroke-width="0.24" fill="none" />
  <path d="M365.0129,473.8894 L354.3997,478.2737 L349.9915,473.8894 z" stroke="#000000" stroke-width="0.24" fill="none" />
  <path d="M354.7351,479.5913 L367.1452,474.4644 L362.0182,486.8505 L349.6082,491.9774 z" stroke="#000000" stroke-width="0.24" fill="none" />
  <path d="M367.7202,476.5966 L367.7202,491.618 L363.312,487.2099 z" stroke="#000000" stroke-width="0.24" fill="none" />
  <path d="M369.0618,476.5966 L373.446,487.2099 L369.0618,491.618 z" stroke="#000000" stroke-width="0.24" fill="none" />
  <path d="M374.7637,486.8505 L370.3076,476.0696 L385.5446,491.3066 z" stroke="#000000" stroke-width="0.24" fill="none" />
  <path d="M371.2659,475.1113 L382.0468,479.5674 L386.5029,490.3483 z" stroke="#000000" stroke-width="0.24" fill="none" />
  <path d="M387.7487,474.8238 L387.7487,478.3935 L384.179,478.3935 z" stroke="#000000" stroke-width="0.24" fill="none" />
  <path d="M384.179,467.9958 L387.7487,467.9958 L387.7487,471.5656 z" stroke="#000000" stroke-width="0.24" fill="none" />
  <path d="M383.5561,466.6542 L387.7487,456.5441 L387.7487,466.6542 z" stroke="#000000" stroke-width="0.24" fill="none" />
  <path d="M374.9314,458.0295 L374.9314,453.8609 L385.0415,453.8609 z" stroke="#000000" stroke-width="0.24" fill="none" />
  <path d="M363.1922,457.4066 L363.1922,453.8369 L366.7618,453.8369 z" stroke="#000000" stroke-width="0.24" fill="none" />
  <path d="M353.2258,466.6542 L349.0332,466.6542 L349.0332,456.5681 z" stroke="#000000" stroke-width="0.24" fill="none" />
  <path d="M352.6029,468.0198 L349.0332,471.5895 L349.0332,468.0198 z" stroke="#000000" stroke-width="0.24" fill="none" />
  <path d="M352.6029,478.3935 L349.0332,478.3935 L349.0332,474.8238 z" stroke="#000000" stroke-width="0.24" fill="none" />
  <path d="M353.2258,479.7351 L349.0332,489.8452 L349.0332,479.7351 z" stroke="#000000" stroke-width="0.24" fill="none" />
  <path d="M361.8505,488.3598 L361.8505,492.5524 L351.7404,492.5524 z" stroke="#000000" stroke-width="0.24" fill="none" />
  <path d="M373.5898,488.9827 L373.5898,492.5524 L370.0201,492.5524 z" stroke="#000000" stroke-width="0.24" fill="none" />
  <path d="M383.5561,479.7351 L387.7487,479.7351 L387.7487,489.8452 z" stroke="#000000" stroke-width="0.24" fill="none" />
  <path d="M324.8121,243.165 L411.9698,243.165 L411.9698,516.978 L324.8121,516.978 z" stroke="#000000" stroke-width="0.24" fill="none" />
</svg>