<?xml version="1.0" encoding="utf-8" standalone="no"?>
<!DOCTYPE svg PUBLIC "-//W3C//DTD SVG 1.1//EN" "http://www.w3.org/Graphics/SVG/1.1/DTD/svg11.dtd">
<svg version="1.1" width="612pt" height="792pt" viewBox="0 0 612 792" overflow="visible" xmlns="http://www.w3.org/2000/svg">
  <path d="M293.8942,356.9325 L293.8942,350.969 L311.7847,350.969 L311.7847,353.9507 L353.5293,353.9507 L353.5293,350.969 L359.4928,350.969 L359.4928,356.9325 z" stroke="#0000FF" stroke-width="0.24" fill="none" />
  <path d="M234.2591,449.3668 L228.2956,449.3668 L228.2956,437.4398 L261.0949,437.4398 L261.0949,431.4763 L228.2956,431.4763 L228.2956,425.5128 L261.0949,425.5128 L261.0949,419.5493 L228.2956,419.5493 L228.2956,377.8047 L258.1131,377.8047 L258.1131,407.6223 L240.2226,407.6223 L240.2226,389.7318 L246.1861,389.7318 L246.1861,401.6588 L252.1496,401.6588 L252.1496,383.7682 L234.2591,383.7682 L234.2591,413.5858 L264.0766,413.5858 L264.0766,377.8047 L305.8212,377.8047 L305.8212,449.3668 L276.0037,449.3668 L276.0037,389.7318 L293.8942,389.7318 L293.8942,437.4398 L287.9307,437.4398 L287.9307,395.6953 L281.9672,395.6953 L281.9672,443.4033 L299.8577,443.4033 L299.8577,383.7682 L270.0401,383.7682 L270.0401,449.3668 L246.1861,449.3668 L246.1861,446.3851 L261.0949,446.3851 L261.0949,443.4033 L246.1861,443.4033 L234.2591,443.4033 z" stroke="#0000FF" stroke-width="0.24" fill="none" />
  <path d="M258.1131,365.8777 L273.0219,365.8777 L273.0219,371.8412 L252.1496,371.8412 L252.1496,279.4068 L329.6752,279.4068 L329.6752,327.1149 L305.8212,327.1149 L305.8212,309.2244 L320.73,309.2244 L320.73,285.3703 L258.1131,285.3703 L258.1131,291.3338 L311.7847,291.3338 L311.7847,303.2609 L305.8212,303.2609 L305.8212,297.2973 L299.8577,297.2973 L299.8577,327.1149 L278.9854,327.1149 L278.9854,359.9142 L264.0766,359.9142 L264.0766,353.9507 L273.0219,353.9507 L273.0219,321.1514 L290.9124,321.1514 L290.9124,297.2973 L284.9489,297.2973 L284.9489,315.1879 L267.0584,315.1879 L267.0584,333.0784 L264.0766,333.0784 L264.0766,309.2244 L278.9854,309.2244 L278.9854,297.2973 L273.0219,297.2973 L273.0219,303.2609 L264.0766,303.2609 L264.0766,297.2973 L258.1131,297.2973 z" stroke="#0000FF" stroke-width="0.24" fill="none" />
  <path d="M323.7118,350.969 L323.7118,347.9872 L338.6205,347.9872 L338.6205,350.969 z" stroke="#0000FF" stroke-width="0.24" fill="none" />
  <path d="M311.7847,383.7682 L311.7847,377.8047 L329.6752,377.8047 L329.6752,425.5128 L335.6387,425.5128 L335.6387,392.7135 L341.6023,392.7135 L341.6023,425.5128 L347.5658,425.5128 L347.5658,383.7682 L338.6205,383.7682 L338.6205,377.8047 L353.5293,377.8047 L353.5293,431.4763 L317.7482,431.4763 L317.7482,443.4033 L359.4928,443.4033 L359.4928,371.8412 L284.9489,371.8412 L284.9489,333.0784 L335.6387,333.0784 L335.6387,258.5345 L341.6023,258.5345 L341.6023,291.3338 L347.5658,291.3338 L347.5658,258.5345 L353.5293,258.5345 L353.5293,312.2061 L347.5658,312.2061 L347.5658,303.2609 L341.6023,303.2609 L341.6023,327.1149 L359.4928,327.1149 L359.4928,252.571 L335.6387,252.571 L335.6387,246.6075 L365.4563,246.6075 L365.4563,333.0784 L341.6023,333.0784 L341.6023,339.0419 L332.657,339.0419 L293.8942,339.0419 L293.8942,345.0054 L365.4563,345.0054 L365.4563,359.9142 L293.8942,359.9142 L293.8942,365.8777 L365.4563,365.8777 L365.4563,449.3668 L311.7847,449.3668 L311.7847,425.5128 L323.7117,425.5128 L323.7117,383.7682 z" stroke="#0000FF" stroke-width="0.24" fill="none" />
  <path d="M317.7482,315.1879 L311.7847,315.1879 L311.7847,321.1514 L317.7482,321.1514 z" stroke="#0000FF" stroke-width="0.24" fill="none" />
  <path d="M162.697,306.2426 L210.405,306.2426 L210.405,258.5345 L204.4415,258.5345 L204.4415,276.425 L180.5875,276.425 L180.5875,264.498 L186.551,264.498 L186.551,270.4615 L192.5145,270.4615 L192.5145,258.5345 L174.624,258.5345 L174.624,282.3886 L198.478,282.3886 L198.478,288.3521 L174.624,288.3521 L174.624,294.3156 L198.478,294.3156 L198.478,300.2791 L168.6605,300.2791 L168.6605,252.571 L216.3686,252.571 L216.3686,306.2426 L246.1861,306.2426 L246.1861,279.4068 L240.2226,279.4068 L240.2226,300.2791 L234.2591,300.2791 L234.2591,279.4068 L228.2956,279.4068 L228.2956,300.2791 L222.3321,300.2791 L222.3321,246.6075 L162.697,246.6075 z" stroke="#0000FF" stroke-width="0.24" fill="none" />
  <path d="M198.4781,377.8047 L192.5145,377.8047 L192.5145,342.0237 L198.4781,342.0237 z" stroke="#0000FF" stroke-width="0.24" fill="none" />
  <path d="M192.5145,449.3669 L222.3321,449.3669 L222.3321,330.0967 L228.2956,330.0967 L228.2956,371.8412 L246.1861,371.8412 L246.1861,312.2061 L192.5145,312.2061 L192.5145,318.1696 L240.2226,318.1696 L240.2226,365.8777 L234.2591,365.8777 L234.2591,324.1331 L216.3686,324.1331 L216.3686,443.4034 L198.4781,443.4034 L198.4781,431.4763 L210.4051,431.4763 L210.4051,407.6223 L198.4781,407.6223 L198.4781,395.6953 L210.4051,395.6953 L210.4051,324.1331 L192.5145,324.1331 L192.5145,330.0967 L204.4416,330.0967 L204.4416,389.7318 L192.5145,389.7318 L192.5145,413.5858 L204.4416,413.5858 L204.4416,425.5128 L192.5145,425.5128 z" stroke="#0000FF" stroke-width="0.24" fill="none" />
  <path d="M162.697,312.2061 L162.697,336.0602 L180.5875,336.0602 L180.5875,347.9872 L162.697,347.9872 L162.697,371.8412 L180.5875,371.8412 L180.5875,377.8047 L162.697,377.8047 L162.697,383.7682 L168.6605,383.7682 L168.6605,395.6953 L162.697,395.6953 L162.697,401.6588 L168.6605,401.6588 L168.6605,419.5493 L162.697,419.5493 L162.697,425.5128 L168.6605,425.5128 L168.6605,443.4034 L162.697,443.4034 L162.697,449.3669 L174.624,449.3669 L174.624,383.7682 L180.5875,383.7682 L180.5875,449.3669 L186.551,449.3669 L186.551,365.8777 L168.6605,365.8777 L168.6605,353.9507 L186.551,353.9507 L186.551,330.0967 L168.6605,330.0967 L168.6605,318.1696 L186.551,318.1696 L186.551,312.2061 z" stroke="#0000FF" stroke-width="0.24" fill="none" />
  <path d="M323.7117,252.571 L237.2408,252.571 L237.2408,273.4433 L231.2773,273.4433 L231.2773,246.6075 L329.6752,246.6075 L329.6752,273.4433 L264.0766,273.4433 L264.0766,267.4798 L290.9124,267.4798 L290.9124,270.4615 L323.7117,270.4615 L323.7117,261.5163 L249.1679,261.5163 L249.1679,273.4433 L243.2043,273.4433 L243.2043,258.5345 L323.7117,258.5345 z" stroke="#0000FF" stroke-width="0.24" fill="none" />
  <path d="M156.7335,455.3304 L156.7335,240.644 L371.4198,240.644 L371.4198,455.3304 z" stroke="#0000FF" stroke-width="0.24" fill="none" />
  <path d="M314.7664,392.7135 L317.7482,392.7135 L317.7482,416.5675 L314.7664,416.5675 z" stroke="#0000FF" stroke-width="0.24" fill="none" />
  <path d="M126.9159,485.1479 L126.9159,210.8265 L401.2374,210.8265 L401.2374,485.1479 z" stroke="#C80000" stroke-width="0.24" fill="none" />
</svg>