<?xml version="1.0" encoding="utf-8" standalone="no"?>
<!DOCTYPE svg PUBLIC "-//W3C//DTD SVG 1.1//EN" "http://www.w3.org/Graphics/SVG/1.1/DTD/svg11.dtd">
<svg version="1.1" width="612pt" height="792pt" viewBox="0 0 612 792" overflow="visible" xmlns="http://www.w3.org/2000/svg">
  <path d="M225.2244,496.7666 L225.2244,483.9789 L174.0735,483.9789 L174.0735,496.7666 z" stroke="#0000FF" stroke-width="0.24" fill="none" />
  <path d="M161.2858,330.5264 L340.3138,330.5264 L340.3138,509.5544 L161.2858,509.5544 z" stroke="#0000FF" stroke-width="0.24" fill="none" />
  <path d="M282.7691,445.6158 L308.3445,445.6158 L308.3445,483.9789 L295.5568,483.9789 L295.5568,458.4035 L282.7691,458.4035 L282.7691,483.9789 L269.9814,483.9789 L269.9814,420.0404 L269.9814,368.8895 L257.1937,368.8895 L257.1937,407.2527 L212.4367,407.2527 L212.4367,381.6772 L225.2244,381.6772 L225.2244,394.465 L238.0121,394.465 L238.0121,368.8895 L199.649,368.8895 L199.649,420.0404 L250.7998,420.0404 L250.7998,432.8281 L199.649,432.8281 L199.649,445.6158 L250.7998,445.6158 L250.7998,458.4035 L186.8613,458.4035 L186.8613,356.1018 L289.1629,356.1018 L289.1629,394.465 L327.5261,394.465 L327.5261,343.3141 L314.7383,343.3141 L314.7383,381.6772 L301.9506,381.6772 L301.9506,343.3141 L174.0735,343.3141 L174.0735,471.1912 L257.1937,471.1912 L257.1937,483.9789 L238.0121,483.9789 L238.0121,496.7666 L327.5261,496.7666 L327.5261,407.2527 L282.7691,407.2527 z" stroke="#0000FF" stroke-width="0.24" fill="none" />
  <path d="M308.3445,420.0404 L308.3445,432.8281 L295.5568,432.8281 L295.5568,420.0404 z" stroke="#0000FF" stroke-width="0.24" fill="none" />
  <path d="M135.7104,304.951 L365.8892,304.951 L365.8892,535.1298 L135.7104,535.1298 z" stroke="#C80000" stroke-width="0.24" fill="none" />
</svg>